<?xml version="1.0" encoding="utf-8"?>
<!-- Generator: Adobe Illustrator 23.0.0, SVG Export Plug-In . SVG Version: 6.00 Build 0)  -->
<svg version="1.1" id="Layer_1" xmlns="http://www.w3.org/2000/svg" xmlns:xlink="http://www.w3.org/1999/xlink" x="0px" y="0px"
	 viewBox="0 0 500 500" style="enable-background:new 0 0 500 500;" xml:space="preserve">
<g>
	<path d="M294.7,46.3c-0.5,2.2,0.1,3.5,1.9,3.9c1.5,0.3,2.3-0.2,2.7-1l7.6,1.7c-0.7,2.2-3.9,3.6-10.8,2.1c-6.2-1.4-9.9-4.4-8.7-9.4
		c1.2-5.1,6-6.2,11.8-4.8c5.1,1.2,9.8,3.9,8.4,9.8l-0.2,0.7L294.7,46.3z M300.4,45c0.4-1.7-0.2-3-1.9-3.4c-1.7-0.4-2.8,0.5-3.2,2.2
		L300.4,45z"/>
	<path d="M310.5,46.3L322,50l-1.5,4.5L309,50.8L310.5,46.3z"/>
	<path d="M336,57.2c0.2-0.7,0.3-1.3,0.1-1.9c-0.2-0.6-0.5-1-1.2-1.3c-1.6-0.7-2.9,0.4-3.8,2.5c-1,2.2-1.2,4.1,0.6,4.8
		c1.7,0.7,2.7-0.2,3.2-1.4L342,63c-0.8,1.9-2.5,2.8-4.6,2.9c-2.1,0.1-4.7-0.5-7.4-1.7c-5.3-2.3-8.7-6-6.6-10.8
		c2-4.7,6.6-5.1,12.9-2.4c4.3,1.8,8.5,5,6.7,9.2L336,57.2z"/>
	<path d="M357.7,61.7c5.7,3.2,8.5,6.9,5.7,11.7c-2.7,4.8-7.3,4.2-13,1s-8.5-6.9-5.7-11.7C347.5,57.9,352,58.5,357.7,61.7z
		 M352.2,71.4c1.7,1,3.1-0.2,4.1-2.1c1-1.8,1.3-3.6-0.3-4.6c-1.7-1-3.1,0.2-4.1,2.1C350.8,68.6,350.5,70.4,352.2,71.4z"/>
	<path d="M367.8,74c1.4-1.7,2.5-3.3,3.1-4.2l5.9,4.7l-1.6,2.2l0,0c2.1-0.7,4.5-0.6,6.9,1.4c2,1.6,3.5,4,2.8,6
		c2.1-0.7,4.2-0.5,6.8,1.5c2.4,1.9,4.4,5.2,2,8.2l-5.5,7l-6.2-4.9l4.7-5.9c0.8-1,1-2.2-0.1-3.2c-1-0.8-2.3-0.9-3.5,0.7l-4.5,5.7
		l-6.2-4.9l4.8-6.1c0.8-1,0.8-2.2-0.2-3c-1-0.8-2.5-0.7-3.7,0.9l-4.3,5.5l-6.2-4.9L367.8,74z"/>
	<path d="M397,97.6c1.6-1.5,3-2.8,3.8-3.6l5,5.6l-1.9,1.9l0,0c2.2-0.3,4.5,0.2,6.6,2.5c1.7,1.9,2.7,4.5,1.7,6.4
		c2.2-0.4,4.2,0.3,6.4,2.7c2,2.2,3.4,5.9,0.6,8.4l-6.7,5.9l-5.3-5.9l5.6-5c0.9-0.8,1.4-2,0.4-3.2c-0.9-1-2.1-1.3-3.6,0.1l-5.4,4.8
		l-5.3-5.9l5.8-5.1c1-0.9,1.2-2,0.3-3s-2.3-1.1-3.8,0.2l-5.2,4.6l-5.3-5.9L397,97.6z"/>
	<path d="M422.8,133.2c-1.9,1.3-2.3,2.6-1.3,4.1c0.8,1.3,1.8,1.4,2.6,1.1l4.3,6.5c-2,1-5.4-0.1-9.2-5.9c-3.5-5.3-4.1-10,0.2-12.9
		c4.4-2.9,8.6-0.4,11.9,4.6c2.9,4.3,4.4,9.6-0.6,12.9l-0.6,0.4L422.8,133.2z M427.8,136.2c1.5-1,2-2.3,1-3.8
		c-0.9-1.4-2.4-1.6-3.9-0.6L427.8,136.2z"/>
	<path d="M433.8,145.5c1.8-1,3.4-1.8,4.4-2.5l3.6,6.7l-3,1.8l0,0c3.4-0.6,4.8,0.8,6.4,3.6l-4.6,2.5l-0.7-1.3c-1.6-3-3.5-3.2-5.7-2.1
		l-4.2,2.2l-3.7-7L433.8,145.5z"/>
	<path d="M446,171.6c0.6-0.4,1.1-0.8,1.4-1.3s0.3-1.1,0-1.8c-0.7-1.6-2.4-1.8-4.5-0.9c-2.2,0.9-3.7,2.1-3,3.9
		c0.7,1.7,2.1,1.8,3.3,1.3l3,7.2c-1.9,0.8-3.7,0.3-5.3-1.1c-1.6-1.4-3-3.6-4.1-6.4c-2.2-5.3-2.1-10.3,2.8-12.3c4.7-2,8.3,1,10.9,7.3
		c1.8,4.3,2.7,9.5-1.6,11.3L446,171.6z"/>
	<path d="M449.5,189.2c-2.2,0.6-3,1.8-2.5,3.6c0.4,1.5,1.3,1.9,2.2,1.8l2.2,7.5c-2.2,0.4-5.1-1.7-7.1-8.4c-1.8-6.1-1-10.8,3.9-12.2
		c5.1-1.5,8.3,2.2,10,7.9c1.5,5,1.3,10.5-4.4,12.1l-0.7,0.2L449.5,189.2z M453.5,193.6c1.7-0.5,2.6-1.6,2.1-3.4
		c-0.5-1.6-1.8-2.2-3.5-1.7L453.5,193.6z"/>
	<path d="M461.3,227.6c0.6-0.2,0.9-0.5,1.1-1c0.2-0.5,0.2-1.1,0.1-1.8c-0.1-1.3-0.7-2.2-1.4-2.1c-0.8,0.1-1,0.4-1.1,3.9l-0.1,2.8
		c-0.1,4.3-0.7,6.5-3.4,6.8c-3,0.3-4.7-2.5-5.5-9.4c-1-8.5,0.3-10.7,3.2-11.2l0.8,7.2c-0.5,0.2-0.9,0.5-1.1,0.9
		c-0.2,0.5-0.2,1.2-0.1,2.1c0.2,1.7,0.7,2.6,1.5,2.5c0.9-0.1,1-0.6,1.2-3.8l0.2-5.4c0.1-2.4,1.3-3.7,2.8-3.9c3.4-0.4,5.2,3,5.9,9.2
		c0.7,6,0.3,9.9-3.3,10.3L461.3,227.6z"/>
	<path d="M471.2,247.6l-4.8,0.1l0.1,4l-3.8,0.1l-0.1-4l-3.9,0.1c-1.7,0-2.4,0.9-2.3,2.7c0,0.4,0.1,0.9,0.2,1.4l-3.6,0.1
		c-0.2-1-0.6-3.5-0.6-5.4c-0.1-5,1.2-6.6,5.4-6.7l4.7-0.1l-0.1-2.2l3.8-0.1l0.1,2.2l2.4-0.1L471.2,247.6z"/>
	<path d="M461.3,254.7c2.1,0.1,3.9,0.2,5.1,0.1l-0.4,7.6l-3.5,0l0,0.1c3.2,1.2,3.7,3.1,3.6,6.4l-5.2-0.3l0.1-1.5
		c0.2-3.4-1.3-4.6-3.8-4.7l-4.8-0.2l0.4-7.9L461.3,254.7z"/>
	<path d="M461.6,271.4c1.7,0.4,2.6,1.8,3,3.7c0.4,1.9,0.3,4.2,0,6.2c-1,7-3,10-7.2,9.3l-6.4-0.9c-0.5-0.1-1-0.1-1.8-0.1l1-7l1.9,0.1
		c-1.7-1.8-1.9-3.9-1.5-6.7c0.2-1.7,0.6-3.4,1.2-4.4c0.7-1.3,2-2.3,3.8-2c4,0.6,4,5.7,3.2,11.3l-0.3,2.2l0.7,0.1
		c1.1,0.2,2.2-0.2,2.5-2c0.3-1.8-0.4-2.5-1.2-2.7L461.6,271.4z M456.1,281.8c0.4-3,0-4.3-1.2-4.5c-0.8-0.1-1.6,0.4-1.8,1.8
		c-0.3,2,0.8,3.4,2.4,3.6l0.4,0.1L456.1,281.8z"/>
	<path d="M464.2,305.3l-4.7-1.1l-0.9,3.9l-3.7-0.9l0.9-3.9l-3.8-0.9c-1.6-0.4-2.5,0.2-3,2c-0.1,0.4-0.2,0.9-0.2,1.4l-3.5-0.9
		c0-1,0.3-3.5,0.8-5.4c1.2-4.9,2.8-6,6.9-5l4.6,1.1l0.5-2.2l3.7,0.9l-0.5,2.1l2.3,0.6L464.2,305.3z"/>
	<path d="M448.1,315.2c-2.2-0.7-3.5-0.2-4,1.5c-0.5,1.5,0,2.3,0.7,2.8l-2.5,7.4c-2.1-1-3.2-4.3-0.9-10.9c2.1-6,5.4-9.4,10.3-7.7
		c5,1.7,5.5,6.6,3.6,12.2c-1.7,4.9-4.9,9.3-10.6,7.4l-0.7-0.2L448.1,315.2z M448.8,321c1.7,0.6,3,0.2,3.6-1.6
		c0.6-1.6-0.2-2.9-1.9-3.4L448.8,321z"/>
	<path d="M444.3,345.2l-3.2,6.8c-1.4-0.8-2.9-1.6-4.4-2.3l-6.7-3.2c-4.8-2.3-3.9-7.6-1.4-13c3.2-6.7,5.6-7.4,8.5-6l-3.3,6.9
		c-0.6-0.2-1.1-0.2-1.6-0.1s-0.9,0.6-1.1,1.1c-1,2,0.1,3.1,1.9,3.9l1.4,0.7c-0.8-2-0.5-4,0.5-6c2.2-4.6,5.8-5.4,9.3-3.7
		c3.8,1.8,5.2,5.6,3.2,9.8c-1.1,2.3-2.7,3.6-4.7,4.3L444.3,345.2z M436.7,338.1c-1,2,0.3,3.1,2,3.9c2,1,3.5,0.7,4.3-1
		c0.7-1.5-0.3-3-2-3.8C438.8,336.3,437.3,336.9,436.7,338.1z"/>
	<path d="M434.6,362.9l-11.7-6.9l4-6.8l11.7,6.9L434.6,362.9z M439.7,365.9l-3.4-2l4-6.8l3.4,2L439.7,365.9z"/>
	<path d="M422,374.8c0.6,0.3,1,0.2,1.5,0s0.9-0.7,1.3-1.2c0.8-1.1,0.9-2.1,0.3-2.5c-0.6-0.5-1-0.4-3.4,2.2l-1.9,2
		c-2.9,3.1-4.9,4.3-7.1,2.8c-2.4-1.7-1.9-5,2.2-10.7c5-7,7.3-7.7,9.8-6.2l-4.2,5.9c-0.5-0.2-1-0.3-1.5-0.1c-0.5,0.2-0.9,0.7-1.5,1.5
		c-1,1.4-1.3,2.4-0.6,2.9c0.7,0.5,1.2,0.2,3.4-2.1l3.8-3.9c1.7-1.7,3.4-1.9,4.7-1c2.8,2,1.9,5.7-1.7,10.8c-3.5,4.9-6.4,7.6-9.3,5.5
		L422,374.8z"/>
	<path d="M415.9,396.3l-3.7-3.1l-2.6,3l-2.9-2.5l2.6-3l-3-2.6c-1.3-1.1-2.4-0.9-3.5,0.4c-0.2,0.3-0.5,0.7-0.8,1.2l-2.7-2.4
		c0.5-0.9,1.9-3,3.1-4.4c3.3-3.8,5.3-4.1,8.5-1.3l3.6,3.1l1.5-1.7l2.9,2.5l-1.4,1.6l1.8,1.5L415.9,396.3z"/>
	<path d="M396.5,404.1c1.1,1.4,0.8,3.1-0.1,4.8c-0.9,1.7-2.5,3.4-4.1,4.7c-5.4,4.7-8.7,5.6-11.6,2.4l-4.2-4.9
		c-0.3-0.4-0.7-0.8-1.3-1.2l5.3-4.6l1.4,1.4c-0.1-2.4,1.1-4.2,3.2-6.1c1.3-1.1,2.6-2.2,3.8-2.6c1.4-0.5,3-0.4,4.2,0.9
		c2.7,3.1-0.6,7-4.9,10.7l-1.7,1.4l0.5,0.6c0.7,0.9,1.8,1.3,3.2,0.1c1.4-1.2,1.3-2.1,0.9-2.8L396.5,404.1z M385.6,408.4
		c2.3-2,2.8-3.3,2-4.2c-0.5-0.6-1.5-0.7-2.6,0.2c-1.5,1.3-1.6,3.1-0.5,4.3l0.3,0.3L385.6,408.4z"/>
	<path d="M377.3,418.6c1,1.5,2,3,3.1,4.3l-6.5,4.4l-1.4-1.9l0,0c0,2.3-1.2,4.3-3.5,5.9c-2,1.4-5.9,3.1-8.8-1.2l-4.6-6.7l6.6-4.5
		l4.1,6c1.1,1.7,2.2,1.8,3.3,1c1.5-1,1.5-2.4,0.3-4.1l-3.8-5.6l6.6-4.5L377.3,418.6z"/>
	<path d="M341.8,433c0.8-2.4,2.1-3.8,4-4.8c4.4-2.3,8.1-1.4,10.3,2.8c2.2,4.2,1,7.8-3.3,10c-1.9,1-4.1,1.4-6.1,0.8l3.5,6.7l-7,3.7
		l-9-17.3l6.7-3.5L341.8,433z M344.8,432.8c-1.9,1-1.5,2.9-0.6,4.5c1,1.9,2.6,2.8,4,2c1.7-0.9,1.6-2.5,0.6-4.5
		C348,433.3,346.8,431.8,344.8,432.8z"/>
	<path d="M311.2,452c0.3,0.7,0.7,1.2,1.2,1.5s1.1,0.4,1.8,0.2c1.7-0.5,2-2.2,1.3-4.4c-0.7-2.3-1.8-3.9-3.6-3.3
		c-1.7,0.5-1.9,1.9-1.5,3.2l-7.4,2.4c-0.6-2,0.1-3.7,1.6-5.2c1.5-1.5,3.9-2.7,6.7-3.6c5.5-1.7,10.5-1.2,12,3.9
		c1.5,4.9-1.7,8.2-8.2,10.2c-4.4,1.4-9.7,1.8-11.1-2.6L311.2,452z"/>
	<path d="M300.7,455.3c0.4,2,0.8,3.8,1.2,4.9l-7.4,1.6l-0.9-3.3l-0.1,0c-0.4,3.4-2.1,4.4-5.2,5.2l-1.1-5.1l1.5-0.3
		c3.4-0.7,4.1-2.4,3.5-4.9l-1-4.7l7.8-1.7L300.7,455.3z"/>
	<path d="M277.2,456.7c-0.3-2.3-1.3-3.2-3.1-3c-1.5,0.2-2.1,1-2.2,1.8l-7.7,0.9c0-2.3,2.5-4.8,9.4-5.6c6.3-0.7,10.8,0.8,11.4,5.9
		c0.6,5.2-3.5,7.8-9.5,8.5c-5.1,0.6-10.5-0.4-11.2-6.4l-0.1-0.7L277.2,456.7z M272.3,459.9c0.2,1.7,1.2,2.8,3,2.6
		c1.7-0.2,2.5-1.4,2.3-3.2L272.3,459.9z"/>
	<path d="M261.4,462.3c-0.1,1.8-1.4,2.9-3.2,3.6c-1.8,0.7-4.1,1-6.2,1c-7.1,0.1-10.3-1.3-10.4-5.6l-0.1-6.5c0-0.5-0.1-1.1-0.2-1.8
		l7.1-0.1l0.2,1.9c1.5-1.9,3.6-2.5,6.4-2.6c1.7,0,3.4,0,4.5,0.4c1.4,0.5,2.6,1.6,2.6,3.4c0.1,4-5,4.9-10.6,5l-2.2,0l0,0.8
		c0,1.1,0.6,2.2,2.4,2.1c1.8,0,2.4-0.8,2.5-1.6L261.4,462.3z M250.2,458.5c3.1-0.1,4.3-0.7,4.2-1.9c0-0.8-0.7-1.5-2.1-1.5
		c-2,0-3.2,1.3-3.2,3l0,0.4L250.2,458.5z"/>
	<path d="M228.2,470.1l0.4-4.8l-4-0.3l0.3-3.8l4,0.3l0.3-3.9c0.1-1.7-0.6-2.5-2.4-2.6c-0.4,0-0.9,0-1.4,0.1l0.3-3.6
		c1-0.1,3.5-0.2,5.4-0.1c5,0.4,6.4,1.9,6,6.1l-0.4,4.7l2.2,0.2l-0.3,3.8l-2.2-0.2l-0.2,2.4L228.2,470.1z"/>
	<path d="M212.9,469.2l0.6-3.9l7.9,1.2l-0.6,3.9L212.9,469.2z M213.7,463.4l2-13.4l7.9,1.2l-2,13.4L213.7,463.4z"/>
	<path d="M207.6,448.4l3,14.7l-8.1-1.9l-1.4-9.4l-5.4,7.8l-7.5-1.8l9.3-11.7L207.6,448.4z"/>
	<path d="M181.8,447.1c0.8-2.2,0.3-3.5-1.4-4.1c-1.4-0.5-2.3-0.1-2.8,0.7l-7.3-2.6c1-2.1,4.3-3.1,10.9-0.8c6,2.1,9.3,5.6,7.6,10.4
		c-1.8,5-6.7,5.4-12.3,3.4c-4.9-1.8-9.2-5.1-7.2-10.7l0.2-0.7L181.8,447.1z M175.9,447.7c-0.6,1.7-0.2,3,1.5,3.6
		c1.6,0.6,2.9-0.2,3.5-1.8L175.9,447.7z"/>
	<path d="M154.6,439.1c-1.1,1.9-2,3.5-2.6,4.5l-6.5-3.9l1.3-2.4l0,0c-2,1-4.4,1.1-7-0.5c-2.2-1.3-3.9-3.5-3.5-5.6
		c-2,1-4.1,1-6.9-0.7c-2.6-1.6-5-4.6-3-7.9l4.6-7.6l6.8,4.1l-3.9,6.5c-0.7,1.1-0.8,2.3,0.5,3.1c1.1,0.7,2.3,0.6,3.4-1.2l3.7-6.2
		l6.8,4.1l-4,6.6c-0.7,1.1-0.5,2.3,0.6,2.9c1.1,0.7,2.5,0.4,3.6-1.4l3.6-5.9l6.8,4.1L154.6,439.1z"/>
	<path d="M122.3,420.1c-1.2,1.3-2.9,1.3-4.7,0.7s-3.7-1.9-5.3-3.3c-5.5-4.5-7-7.7-4.2-11l4.1-5c0.3-0.4,0.6-0.8,1-1.5l5.5,4.5
		l-1.1,1.6c2.4-0.5,4.4,0.4,6.5,2.2c1.3,1.1,2.6,2.2,3.2,3.3c0.7,1.3,0.9,2.9-0.2,4.3c-2.6,3.1-7,0.5-11.3-3.1l-1.7-1.4l-0.5,0.6
		c-0.7,0.9-0.9,2,0.4,3.1c1.4,1.2,2.3,1,3,0.4L122.3,420.1z M116.3,410c2.4,2,3.7,2.2,4.4,1.3c0.5-0.6,0.5-1.6-0.6-2.5
		c-1.5-1.3-3.3-1-4.3,0.2l-0.3,0.3L116.3,410z"/>
	<path d="M104.8,403.6c-1.5,1.5-2.7,2.7-3.5,3.7l-5.4-5.4l2.3-2.6l0,0c-3.1,1.6-4.8,0.6-7.2-1.6l3.7-3.7l1,1.1
		c2.4,2.4,4.3,2.1,6,0.3l3.4-3.4l5.6,5.6L104.8,403.6z"/>
	<path d="M89,384.8l-7.9,0.4l-5.8-7.1l8,0.5l1.4-10.4L91,376L89,384.8z M84.5,398.7l-5-6.1l15.1-12.3l5,6.1L84.5,398.7z"/>
	<path d="M75.9,364.8c1.9-1.2,2.3-2.6,1.3-4.1c-0.8-1.3-1.8-1.4-2.6-1.2l-4.2-6.5c2-1,5.4,0.1,9.1,6c3.4,5.3,4,10.1-0.3,12.8
		c-4.4,2.9-8.6,0.3-11.8-4.8c-2.8-4.4-4.3-9.7,0.8-12.9l0.6-0.4L75.9,364.8z M70.9,361.7c-1.5,1-2,2.3-1,3.8
		c0.9,1.4,2.4,1.6,3.9,0.6L70.9,361.7z"/>
	<path d="M52.4,349.5l4.3-2.2l-1.8-3.5l3.4-1.7l1.8,3.5l3.5-1.8c1.5-0.8,1.7-1.9,0.9-3.5c-0.2-0.3-0.5-0.8-0.8-1.2l3.2-1.7
		c0.6,0.8,2.1,2.9,3,4.6c2.3,4.5,1.9,6.4-1.9,8.4l-4.2,2.2l1,2l-3.4,1.7l-1-1.9l-2.1,1.1L52.4,349.5z"/>
	<path d="M58,331.5c2.1-0.9,2.7-2.1,2.1-3.8c-0.6-1.4-1.5-1.7-2.4-1.6l-3-7.2c2.2-0.6,5.2,1.1,7.9,7.6c2.4,5.9,2.1,10.6-2.6,12.6
		c-4.9,2-8.5-1.3-10.8-6.8c-2-4.8-2.4-10.3,3.1-12.5l0.7-0.3L58,331.5z M53.6,327.5c-1.6,0.7-2.4,1.9-1.7,3.6c0.6,1.6,2.1,2,3.7,1.3
		L53.6,327.5z"/>
	<path d="M49.5,317.2c-2,0.6-3.7,1.1-4.8,1.6l-2.2-7.3l3.3-1.2l0-0.1c-3.5-0.1-4.5-1.7-5.6-4.8l5-1.5l0.4,1.4c1,3.3,2.8,3.8,5.2,3.1
		l4.6-1.4l2.3,7.6L49.5,317.2z"/>
	<path d="M41,289.6c-1.8,0.1-3-1-4-2.7c-0.9-1.7-1.5-3.9-1.7-6c-1-7,0-10.4,4.3-11L46,269c0.5-0.1,1-0.2,1.8-0.4l1,7l-1.9,0.4
		c2.1,1.2,2.9,3.2,3.3,6c0.2,1.7,0.4,3.4,0.1,4.6c-0.3,1.4-1.3,2.7-3.1,3c-4,0.6-5.5-4.3-6.3-9.9l-0.3-2.2l-0.7,0.1
		c-1.1,0.2-2.1,0.9-1.8,2.6c0.3,1.8,1.1,2.3,1.9,2.3L41,289.6z M43.4,278.1c0.4,3,1.3,4.1,2.4,4c0.8-0.1,1.4-0.9,1.2-2.2
		c-0.3-2-1.7-3-3.3-2.8l-0.4,0.1L43.4,278.1z"/>
	<path d="M39.3,265.5c-1.8,0-3.6,0.1-5.3,0.3l-0.2-7.8l2.4-0.2l0-0.1c-1.9-1.2-3-3.4-3-6.1c-0.1-2.4,0.6-6.6,5.8-6.8l8.1-0.2
		l0.2,7.9l-7.3,0.2c-2,0-2.7,0.8-2.6,2.2c0,1.8,1.2,2.6,3.3,2.5l6.7-0.2l0.2,7.9L39.3,265.5z"/>
	<path d="M46.5,227.9c1.6,2,2.1,3.8,1.9,6c-0.5,4.9-3.3,7.6-7.9,7.1c-4.7-0.4-7.1-3.4-6.6-8.2c0.2-2.1,1-4.2,2.7-5.6l-7.6-0.7
		l0.7-7.9l19.4,1.8l-0.7,7.5L46.5,227.9z M45,230.5c0.2-2.2-1.6-2.8-3.4-3c-2.2-0.2-3.8,0.6-3.9,2.3c-0.2,1.9,1.3,2.8,3.4,3
		C42.9,233,44.8,232.7,45,230.5z"/>
	<path d="M42.5,203.4c-1.7-0.6-2.4-2.1-2.6-4c-0.2-1.9,0.2-4.2,0.8-6.2c1.9-6.9,4.1-9.5,8.3-8.4l6.2,1.7c0.5,0.1,1,0.2,1.8,0.3
		l-1.9,6.8l-1.9-0.4c1.4,2,1.4,4.1,0.7,6.8c-0.4,1.6-1,3.3-1.7,4.2c-0.9,1.2-2.3,2-4,1.5c-3.9-1.1-3.3-6.1-1.8-11.6l0.6-2.1
		l-0.7-0.2c-1.1-0.3-2.2,0-2.7,1.7c-0.5,1.8,0.1,2.5,0.8,2.9L42.5,203.4z M49.2,193.8c-0.8,3-0.5,4.3,0.6,4.6c0.8,0.2,1.7-0.2,2-1.6
		c0.5-1.9-0.4-3.4-2-3.9l-0.4-0.1L49.2,193.8z"/>
	<path d="M50.3,180.7c-1.9-0.7-3.6-1.4-4.8-1.6l2.7-7.1l3.3,1.1l0-0.1c-2.7-2.2-2.5-4.1-1.5-7.2l4.9,1.9l-0.5,1.4
		c-1.2,3.2-0.2,4.7,2.2,5.6l4.5,1.7l-2.8,7.4L50.3,180.7z"/>
	<path d="M51.2,153l4.4,2.1l1.7-3.6l3.4,1.6l-1.7,3.6l3.6,1.7c1.5,0.7,2.5,0.3,3.3-1.4c0.2-0.3,0.3-0.8,0.4-1.4l3.3,1.5
		c-0.2,1-1,3.4-1.8,5.1c-2.1,4.5-4,5.3-7.8,3.5l-4.3-2l-1,2l-3.4-1.6l0.9-2l-2.1-1L51.2,153z"/>
	<path d="M81.6,133.7c0.5,2.5,0,4.3-1.2,6.1c-2.8,4.1-6.5,5.1-10.4,2.5c-3.9-2.6-4.6-6.4-1.9-10.3c1.2-1.7,2.9-3.2,5-3.6l-6.3-4.2
		l4.4-6.6l16.2,10.9l-4.2,6.2L81.6,133.7z M79,135.3c1.2-1.8-0.1-3.2-1.6-4.2c-1.8-1.2-3.6-1.2-4.5,0.1c-1.1,1.6-0.2,3,1.6,4.2
		C75.9,136.4,77.8,137.1,79,135.3z"/>
	<path d="M79.7,107.1l3.1,2.5l-5,6.2l-3.1-2.5L79.7,107.1z M84.3,110.8l10.5,8.5l-5,6.2L79.3,117L84.3,110.8z"/>
	<path d="M91.1,110.6c-1.5-1.4-2.8-2.6-3.8-3.3l5.2-5.6l2.7,2.2l0,0c-1.7-3-0.8-4.8,1.3-7.2l3.8,3.6l-1,1.1c-2.3,2.5-1.9,4.3-0.1,6
		l3.5,3.3l-5.4,5.8L91.1,110.6z"/>
	<path d="M109.5,95.9c1.5,1.7,2.9,1.9,4.3,0.7c1.1-1,1.1-2,0.7-2.7l5.8-5.2c1.3,1.9,0.7,5.3-4.5,10c-4.7,4.2-9.3,5.5-12.7,1.7
		c-3.5-3.9-1.6-8.4,2.9-12.4c3.9-3.4,8.9-5.7,12.9-1.2l0.5,0.5L109.5,95.9z M111.7,90.5c-1.2-1.3-2.6-1.6-3.9-0.4
		c-1.3,1.1-1.2,2.6,0,3.9L111.7,90.5z"/>
	<path d="M130.1,76.3c-0.5-0.5-1-0.9-1.6-1.1c-0.6-0.2-1.1-0.1-1.8,0.4c-1.5,1-1.2,2.7,0.1,4.6c1.4,2,2.9,3.1,4.4,2
		c1.5-1,1.3-2.4,0.5-3.5l6.3-4.5c1.2,1.7,1.1,3.5,0.1,5.4c-1,1.9-2.9,3.7-5.3,5.4c-4.7,3.3-9.6,4.3-12.6,0c-3-4.2-0.9-8.3,4.7-12.2
		c3.8-2.7,8.7-4.7,11.3-0.9L130.1,76.3z"/>
	<path d="M141.4,57.2l2.4,4.2l3.5-2l1.9,3.3l-3.5,2l2,3.4c0.8,1.4,1.9,1.7,3.5,0.7c0.3-0.2,0.7-0.5,1.1-0.9l1.8,3.1
		c-0.7,0.7-2.8,2.2-4.4,3.2c-4.3,2.5-6.3,2.1-8.4-1.5l-2.4-4.1l-1.9,1.1l-1.9-3.3l1.9-1.1l-1.2-2.1L141.4,57.2z"/>
	<path d="M159.1,53.1c5.9-2.7,10.5-2.9,12.8,2.1c2.3,5-0.8,8.4-6.7,11.1c-5.9,2.7-10.5,2.9-12.8-2.1C150,59.2,153.1,55.8,159.1,53.1
		z M163.7,63.2c1.7-0.8,1.6-2.7,0.7-4.6c-0.9-1.9-2.2-3.2-3.9-2.4c-1.7,0.8-1.6,2.7-0.7,4.6C160.7,62.7,162,64,163.7,63.2z"/>
	<path d="M174.8,52.4c-0.7-2-1.3-3.6-1.8-4.7l7.2-2.5l1.3,3.2l0.1,0c-0.1-3.5,1.5-4.6,4.6-5.8l1.7,4.9l-1.4,0.5
		c-3.2,1.1-3.7,2.9-2.9,5.3l1.6,4.5l-7.5,2.6L174.8,52.4z"/>
	<path d="M202.1,42.8c-0.2-1.7,0.9-3.1,2.5-4.1c1.7-1,3.9-1.6,5.9-2c7-1.3,10.4-0.4,11.2,3.9l1.2,6.3c0.1,0.5,0.2,1,0.5,1.7l-7,1.3
		l-0.5-1.9c-1.1,2.1-3.1,3.1-5.9,3.6c-1.7,0.3-3.4,0.5-4.6,0.3c-1.4-0.3-2.8-1.2-3.1-2.9c-0.7-4,4.1-5.7,9.7-6.7l2.2-0.4l-0.1-0.7
		c-0.2-1.1-0.9-2-2.7-1.7c-1.8,0.3-2.2,1.1-2.2,2L202.1,42.8z M213.7,44.7c-3,0.6-4.1,1.4-3.9,2.5c0.1,0.8,0.9,1.4,2.3,1.1
		c1.9-0.4,2.9-1.9,2.6-3.4l-0.1-0.4L213.7,44.7z"/>
	<path d="M226,40.1c-0.1-1.8-0.3-3.6-0.5-5.3l7.8-0.5l0.3,2.4l0.1,0c1.2-2,3.2-3.1,6-3.3c2.4-0.2,6.7,0.4,7,5.5l0.5,8.1l-7.9,0.5
		l-0.5-7.2c-0.1-2-1-2.6-2.3-2.6c-1.8,0.1-2.5,1.3-2.4,3.4l0.4,6.7l-7.9,0.5L226,40.1z"/>
	<path d="M263.9,45.8c-1.9,1.7-3.7,2.2-5.9,2.1c-5-0.3-7.7-3-7.5-7.7c0.3-4.7,3.1-7.2,7.9-6.9c2.1,0.1,4.3,0.9,5.7,2.5l0.4-7.6
		l7.9,0.4l-1.1,19.5l-7.5-0.4L263.9,45.8z M261.2,44.4c2.2,0.1,2.7-1.7,2.8-3.5c0.1-2.2-0.8-3.7-2.4-3.8c-1.9-0.1-2.7,1.4-2.8,3.5
		C258.7,42.4,259,44.3,261.2,44.4z"/>
</g>
</svg>
